# xmcd
#
# Track frame offsets:
#	150
#	17572
#	32227
#	46258
#	60622
#	79004
#	95515
#	111578
#	127698
#	147024
#	162155
#	179970
#	195030
#	217165
#	231933
#	246587
#
# Disc length: 3494 seconds
#
# Revision: 2
# Processed by: cddbd v1.5.2PL0 Copyright (c) Steve Scherf et al.
# Submitted via: audiograbber 1.83.01
#
DISCID=df0da410
DTITLE=Karaoke [CDG) - SYB1128  Country Hits 18
DYEAR=2016
DGENRE=Country
TTITLE0=Thomas Rhett (style of) - Die A Happy Man
TTITLE1=Dierks Bentley (style of) - Somewhere on a Beach
TTITLE2=Kelsea Ballerini (style of) - Dibs
TTITLE3=Cole Swindell (style of) - You Should be Here
TTITLE4=Luke Bryan (style of) - Strip It Down
TTITLE5=Chris Young And Cassadee Pope (style of) - Think Of You
TTITLE6=Lo Cash (style of) - I Love This Life
TTITLE7=Carrie Underwood (style of) - Heartbeat
TTITLE8=Tim McGraw (style of) - Humble And Kind
TTITLE9=Maren Morris (style of) - My Church
TTITLE10=Sam Hunt (style of) - Break Up In A Small Town
TTITLE11=Carrie Underwood (style of) - Church Bells
TTITLE12=Chris Stapleton (style of) - Tennessee Whiskey
TTITLE13=Chris Young (style of) - I'm Comin' Over
TTITLE14=Lauren Alaina (style of) - Next Boyfriend
TTITLE15=Thomas Rhett (style of) - Crash And Burn
EXTD=entered by DJ    BillMartin.name
EXTT0=
EXTT1=
EXTT2=
EXTT3=
EXTT4=
EXTT5=
EXTT6=
EXTT7=
EXTT8=
EXTT9=
EXTT10=
EXTT11=
EXTT12=
EXTT13=
EXTT14=
EXTT15=
PLAYORDER=
